<svg xmlns="http://www.w3.org/2000/svg" width="128" height="127" fill="none" viewBox="0 0 128 127"><path style="mix-blend-mode:multiply" fill="url(#paint0_radial)" d="M127.272 66.6824C125.509 101.707 95.6078 128.678 60.4855 126.919C25.3633 125.159 -1.6829 95.3422 0.0816606 60.3176C1.84622 25.2929 31.7457 -1.67815 66.8701 0.0814258C101.994 1.841 129.039 31.6578 127.272 66.6824Z"/><path style="mix-blend-mode:multiply" fill="url(#paint1_radial)" d="M67.5084 17.0787C38.3431 13.0946 15.5727 33.2359 16.6573 62.0666C17.7419 90.8972 42.2706 117.495 71.4275 121.479C100.585 125.463 123.363 105.324 122.279 76.4934C121.194 47.6627 96.68 21.0627 67.5084 17.0787Z"/><path fill="url(#paint2_radial)" d="M99.9129 58.1076C98.699 82.2538 78.0832 100.846 53.8675 99.6348C29.6517 98.4235 11.0111 77.8674 12.2355 53.7191C13.4598 29.5709 34.0652 10.9808 58.2768 12.1941C82.4884 13.4075 101.129 33.9615 99.9129 58.1076Z"/><defs><radialGradient id="paint0_radial" cx="0" cy="0" r="1" gradientTransform="translate(63.7379 63.655) rotate(2.8328) scale(63.679 63.6495)" gradientUnits="userSpaceOnUse"><stop offset=".5" stop-color="#6D6E71"/><stop offset=".55" stop-color="#88898B"/><stop offset=".65" stop-color="#B2B3B5"/><stop offset=".75" stop-color="#D4D4D5"/><stop offset=".84" stop-color="#ECECEC"/><stop offset=".93" stop-color="#FAFAFA"/><stop offset="1" stop-color="#fff"/></radialGradient><radialGradient id="paint1_radial" cx="0" cy="0" r="1" gradientTransform="translate(69.5213 69.0871) rotate(-44.9867) scale(47.6752 57.128)" gradientUnits="userSpaceOnUse"><stop offset=".27" stop-color="#A7A9AC"/><stop offset=".76" stop-color="#E6E6E7"/><stop offset="1" stop-color="#fff"/></radialGradient><radialGradient id="paint2_radial" cx="0" cy="0" r="1" gradientTransform="translate(42.2818 39.6994) rotate(2.83279) scale(66.3324 66.3017)" gradientUnits="userSpaceOnUse"><stop stop-color="#fff"/><stop offset=".19" stop-color="#F1F1F1"/><stop offset=".54" stop-color="#FFE1E0"/><stop offset=".67" stop-color="#FDE0E0"/><stop offset=".72" stop-color="#FADDDD"/><stop offset=".79" stop-color="#FFCCCB"/><stop offset=".87" stop-color="#FFBAB9"/><stop offset=".92" stop-color="#FFBFBE"/></radialGradient></defs></svg>